<svg xmlns="http://www.w3.org/2000/svg" shape-rendering="geometricPrecision" text-rendering="geometricPrecision" image-rendering="optimizeQuality" fill-rule="evenodd" clip-rule="evenodd" viewBox="0 0 512 512"><path fill="#F50" d="M105 0h302c57.928.155 104.845 47.072 105 104.996V407c-.155 57.926-47.072 104.844-104.996 104.998L105 512C47.074 511.844.156 464.926.002 407.003L0 105C.156 47.072 47.074.155 104.997 0H105z"/><path fill="#fff" d="M418.793 285.594c-1.365 24.398-21.728 43.377-46.159 43.039H261.682c-5.081-.053-9.183-4.176-9.211-9.252V199.917a10.18 10.18 0 016.128-9.727s10.206-7.078 31.701-7.078a72.716 72.716 0 0137.306 10.251 73.816 73.816 0 0134.735 48.107 42.846 42.846 0 0111.768-1.603 44.429 44.429 0 0132.052 13.379 44.413 44.413 0 0112.637 32.35l-.005-.002zM238.624 207.47c3.346 40.52 5.778 77.475 0 117.862a3.601 3.601 0 01-3.579 3.208 3.607 3.607 0 01-3.584-3.208c-5.387-40.044-3.04-77.693 0-117.862a3.59 3.59 0 011.671-3.446 3.625 3.625 0 013.829 0 3.599 3.599 0 011.663 3.446zm-22.45 117.902a3.772 3.772 0 01-3.732 3.208 3.77 3.77 0 01-3.736-3.208 450.489 450.489 0 010-104 3.781 3.781 0 013.757-3.378 3.785 3.785 0 013.756 3.378 404.554 404.554 0 01-.047 104h.002zm-22.497-107.518c3.644 37.128 5.302 70.392-.04 107.433a3.608 3.608 0 01-3.604 3.603 3.608 3.608 0 01-3.604-3.603c-5.169-36.565-3.434-70.783 0-107.433a3.633 3.633 0 013.624-3.246 3.636 3.636 0 013.624 3.246zm-22.53 107.565a3.7 3.7 0 01-3.677 3.286 3.683 3.683 0 01-3.664-3.286 380.496 380.496 0 010-97.102 3.735 3.735 0 017.468 0 354.847 354.847 0 01-.132 97.102h.005zm-22.502-72.824c5.692 25.18 3.127 47.419-.213 73.082a3.523 3.523 0 01-3.479 2.968 3.52 3.52 0 01-3.471-2.968c-3.041-25.312-5.56-48.075-.218-73.089a3.696 3.696 0 013.691-3.692 3.692 3.692 0 013.692 3.697l-.002.002zm-22.45-3.824c5.214 25.796 3.519 47.637-.133 73.52-.431 3.824-6.985 3.865-7.335 0-3.301-25.493-4.864-47.987-.133-73.52a3.833 3.833 0 013.804-3.414 3.813 3.813 0 013.797 3.414zm-22.663 12.504c5.467 17.111 3.599 31.013-.218 48.551a3.559 3.559 0 01-3.539 3.169 3.572 3.572 0 01-3.546-3.169c-3.301-17.195-4.638-31.395-.298-48.551a3.811 3.811 0 013.797-3.413 3.813 3.813 0 013.797 3.413h.007z"/></svg>